<svg xmlns="http://www.w3.org/2000/svg" width="1454" height="1542" viewBox="0 0 1454 1542" version="1.1"><path d="" stroke="none" fill="#4c2484" fill-rule="evenodd"/><path d="M 700.500 292.024 C 592.443 299.376, 494.840 343.714, 418.976 419.912 C 296.201 543.229, 258.974 726.447, 323.826 888.202 C 340.351 929.417, 364.328 969.211, 394.504 1005.500 C 404.107 1017.049, 425.959 1040.003, 427.331 1039.983 C 427.974 1039.974, 435.846 1027.160, 444.825 1011.507 L 461.150 983.049 452.810 973.774 C 369.830 881.496, 338.653 757.720, 368.062 637.312 C 380.532 586.257, 402.336 541.811, 436.986 496.818 C 449.234 480.914, 481.610 448.451, 497.500 436.141 C 534.381 407.570, 570.193 388.356, 612.463 374.461 C 705.129 344, 806.048 351.711, 893.500 395.936 C 981.227 440.301, 1047.175 516.790, 1078.496 610.500 C 1086.156 633.419, 1092.052 660.854, 1095.151 688 C 1097.136 705.386, 1096.861 751.084, 1094.666 768.500 C 1085.608 840.369, 1059.160 902.927, 1014.127 959 C 1009.489 964.775, 1002.951 972.341, 999.597 975.814 C 996.244 979.286, 993.361 982.514, 993.192 982.988 C 992.663 984.465, 969.001 1005.902, 959.019 1013.948 C 913.282 1050.810, 857.795 1077.052, 801.500 1088.446 C 774.706 1093.869, 758.866 1095.385, 728.500 1095.431 C 711.690 1095.457, 695.904 1094.952, 689 1094.168 C 652.944 1090.072, 615.659 1080.461, 584.500 1067.233 C 577.350 1064.197, 571.378 1061.618, 571.228 1061.501 C 571.079 1061.385, 574.179 1055.712, 578.119 1048.895 C 582.058 1042.078, 589.421 1029.300, 594.480 1020.500 C 599.540 1011.700, 614.612 985.600, 627.975 962.500 C 641.338 939.400, 657.324 911.725, 663.501 901 C 708.140 823.487, 726.515 792, 727.109 792 C 727.487 792, 738.371 810.337, 751.295 832.750 C 764.219 855.163, 790.652 900.950, 810.034 934.500 C 829.416 968.050, 850.688 1004.950, 857.304 1016.500 C 863.921 1028.050, 869.505 1037.708, 869.713 1037.962 C 871.019 1039.558, 922.200 1008.721, 924.546 1004.926 C 924.830 1004.466, 920.022 995.408, 913.862 984.795 C 907.701 974.183, 900.337 961.450, 897.496 956.500 C 889.826 943.137, 869.934 908.654, 859.711 891 C 854.774 882.475, 846.590 868.300, 841.522 859.500 C 836.455 850.700, 826.319 833.150, 818.997 820.500 C 811.675 807.850, 796.590 781.750, 785.475 762.500 C 774.359 743.250, 763.044 723.675, 760.329 719 L 755.393 710.500 726.973 710.500 L 698.552 710.500 693.447 719.500 C 690.640 724.450, 677.408 747.400, 664.045 770.500 C 636.502 818.110, 596.545 887.286, 518.778 1022 C 428.769 1177.919, 407.059 1215.655, 406.591 1217 C 406.207 1218.106, 413.321 1222.661, 433.656 1234.329 C 448.828 1243.035, 461.605 1249.785, 462.048 1249.329 C 462.767 1248.589, 471.242 1234.090, 486.498 1207.500 C 489.338 1202.550, 496.654 1189.899, 502.756 1179.387 C 508.858 1168.875, 519.093 1151.100, 525.499 1139.887 C 531.906 1128.674, 537.502 1119.135, 537.934 1118.690 C 538.366 1118.244, 543.396 1119.987, 549.110 1122.562 C 655.860 1170.672, 778.571 1173.364, 887.500 1129.984 C 912.820 1119.901, 937.840 1107.480, 955.500 1096.226 C 968.382 1088.017, 992.154 1070.603, 1004.784 1060.125 C 1083.897 994.484, 1138.542 900.199, 1155.395 800.257 C 1159.999 772.951, 1161.340 756.590, 1161.397 727 C 1161.464 692.226, 1159.194 669.170, 1152.530 636.920 C 1137.708 565.187, 1102.981 495.726, 1053.937 439.709 C 1043.723 428.044, 1021.363 406.004, 1009.323 395.734 C 947.925 343.366, 874.216 309.274, 795 296.604 C 767.880 292.266, 726.450 290.258, 700.500 292.024 M 980.500 1112.978 C 973.616 1117.787, 948.921 1131.600, 939.183 1136.088 C 932.393 1139.217, 929.977 1140.804, 930.274 1141.941 C 930.699 1143.564, 990.659 1247.848, 992.038 1249.361 C 992.838 1250.239, 1047.946 1219.109, 1047.981 1217.760 C 1047.991 1217.352, 1039.595 1202.502, 1029.323 1184.760 C 1019.051 1167.017, 1008.321 1148.450, 1005.478 1143.500 C 990.376 1117.205, 986.409 1110.638, 985.500 1110.421 C 984.950 1110.291, 982.700 1111.441, 980.500 1112.978" stroke="none" fill="#442484" fill-rule="evenodd"/></svg>