<svg xmlns="http://www.w3.org/2000/svg" version="1.1" xmlns:xlink="http://www.w3.org/1999/xlink" xmlns:svgjs="http://svgjs.dev/svgjs" width="1000" height="623" viewBox="0 0 1000 623"><g transform="matrix(1,0,0,1,-0.6060606060606233,0.2522267206477409)"><svg viewBox="0 0 396 247" data-background-color="#010536" preserveAspectRatio="xMidYMid meet" height="623" width="1000" xmlns="http://www.w3.org/2000/svg" xmlns:xlink="http://www.w3.org/1999/xlink"><g id="tight-bounds" transform="matrix(1,0,0,1,0.2400000000000091,-0.09999999999999432)"><svg viewBox="0 0 395.52 247.2" height="247.2" width="395.52"><g><svg></svg></g><g><svg viewBox="0 0 395.52 247.2" height="247.2" width="395.52"><g transform="matrix(1,0,0,1,75.54432,93.5425247858198)"><svg viewBox="0 0 244.43135999999998 60.11495042836041" height="60.11495042836041" width="244.43135999999998"><g><svg viewBox="0 0 244.43135999999998 60.11495042836041" height="60.11495042836041" width="244.43135999999998"><g><svg viewBox="0 0 244.43135999999998 60.11495042836041" height="60.11495042836041" width="244.43135999999998"><g><svg viewBox="0 0 244.43135999999998 60.11495042836041" height="60.11495042836041" width="244.43135999999998"><g id="textblocktransform"><svg viewBox="0 0 244.43135999999998 60.11495042836041" height="60.11495042836041" width="244.43135999999998" id="textblock"><g><svg viewBox="0 0 244.43135999999998 60.11495042836041" height="60.11495042836041" width="244.43135999999998"><g transform="matrix(1,0,0,1,0,0)"><svg width="244.43135999999998" viewBox="1.2000000476837158 -37.869998931884766 198.32000732421875 48.779998779296875" height="60.11495042836041" data-palette-color="#fbfbf8"><path d="M1.2 0L13.43-37.35 19.12-37.35 32.18 0 27.76 0 24.05-10.96 9.01-10.96 5.49 0 1.2 0ZM10.13-14.45L22.88-14.45 16.28-34.06 15.53-31.27 10.13-14.45ZM61.86-27.78L61.86-27.78Q61.86-20.26 56.17-19.51L56.17-19.51 56.17-19.43Q59.69-19.17 61.42-17.43L61.42-17.43Q63.43-15.38 63.43-11.49 63.43-7.59 62.53-5.44 61.64-3.3 60.06-2.1L60.06-2.1Q57.35 0 51.54 0L51.54 0 39.06 0 39.06-37.23Q45.82-37.87 50.22-37.87 54.61-37.87 56.66-37.19 58.71-36.52 59.86-35.25L59.86-35.25Q61.86-33.03 61.86-27.78ZM43.21-20.68L48.7-20.68Q53.61-20.68 55.52-22.07L55.52-22.07Q57.69-23.63 57.69-27.88L57.69-27.88 57.69-28.39Q57.69-31.67 56.25-33.06L56.25-33.06Q54.81-34.42 51.34-34.42L51.34-34.42Q48.44-34.42 46.41-34.3L46.41-34.3 43.21-34.11 43.21-20.68ZM43.21-3.47L52.05-3.47Q55.64-3.47 57.18-4.83L57.18-4.83Q59.1-6.57 59.1-11.04L59.1-11.04Q59.1-16.21 55.32-17.09L55.32-17.09Q54.17-17.36 52.83-17.36L52.83-17.36 43.21-17.36 43.21-3.47ZM67.79 0L80.02-37.35 85.71-37.35 98.77 0 94.36 0 90.64-10.96 75.61-10.96 72.09 0 67.79 0ZM76.73-14.45L89.47-14.45 82.88-34.06 82.12-31.27 76.73-14.45ZM105.66 0L105.66-37.13Q105.66-37.13 109.32-37.4L109.32-37.4Q114.81-37.84 118.08-37.84 121.35-37.84 123.31-37.59 125.26-37.33 126.74-36.71 128.22-36.08 129.25-35.01 130.29-33.94 130.95-32.28L130.95-32.28Q132.19-29.17 132.19-23.05L132.19-23.05 132.19-19.26Q132.19-12.01 131.12-8.25L131.12-8.25Q129.88-3.91 126.65-2L126.65-2Q123.33 0 116.91 0L116.91 0 105.66 0ZM126.38-31.42Q125.51-32.81 123.85-33.52 122.18-34.23 118.74-34.23 115.3-34.23 109.81-33.81L109.81-33.81 109.81-3.49 117.57-3.49Q122.11-3.49 124.31-4.98L124.31-4.98Q126.46-6.42 127.19-9.94L127.19-9.94Q127.82-12.82 127.82-19.26L127.82-19.26 127.82-23.07Q127.82-29.15 126.38-31.42L126.38-31.42ZM156.09 0L156.09-37.35 160.22-37.35 160.22 0 156.09 0ZM186.56 0.46L186.56 0.46 186.04 0.49 184.53 0.49Q175.84 0.49 173.06-4.98L173.06-4.98Q171.42-8.15 171.13-13.45L171.13-13.45Q171.01-15.94 171.01-18.87 171.01-21.8 171.18-24.43 171.35-27.05 171.85-29.17 172.35-31.3 173.26-32.92 174.18-34.55 175.67-35.64L175.67-35.64Q178.74-37.84 184.53-37.84L184.53-37.84 186.04-37.84Q195.1-37.84 197.64-32.96L197.64-32.96Q199.23-29.91 199.42-24.46L199.42-24.46Q199.52-21.8 199.52-18.37 199.52-14.94 199.24-11.77 198.96-8.59 197.98-6.13L197.98-6.13Q195.88-0.9 189.88 0.17L189.88 0.17Q192.78 3.69 198.01 7.64L198.01 7.64 194.91 10.91Q188.93 5.86 186.56 0.46ZM184.53-3.03L186-3.03Q188.68-3.03 190.45-3.61 192.22-4.2 193.25-5.66L193.25-5.66Q195.15-8.37 195.15-16.06L195.15-16.06 195.15-18.7Q195.15-22.39 194.96-25.27 194.76-28.15 193.91-30.13L193.91-30.13Q192.15-34.23 186.29-34.23L186.29-34.23 184.24-34.23Q178.28-34.23 176.62-30.4L176.62-30.4Q175.57-27.95 175.47-24.63 175.38-21.31 175.38-18.7L175.38-18.7 175.38-16.06Q175.38-8.86 177.52-5.91L177.52-5.91Q179.6-3.03 184.53-3.03L184.53-3.03Z" opacity="1" transform="matrix(1,0,0,1,0,0)" fill="#fbfbf8" class="wordmark-text-0" data-fill-palette-color="primary" id="text-0"></path></svg></g></svg></g></svg></g></svg></g></svg></g></svg></g></svg></g><g><path d="M0 123.6c0-68.262 55.338-123.6 123.6-123.6 55.317 0 102.146 36.339 117.919 86.447l-2.846 0c-15.676-48.588-61.27-83.736-115.073-83.736-66.765 0-120.889 54.124-120.889 120.889 0 66.765 54.124 120.889 120.889 120.889 53.803 0 99.397-35.148 115.073-83.736l2.846 0c-15.773 50.108-62.602 86.447-117.919 86.447-68.262 0-123.6-55.338-123.6-123.6z" fill="#fbfbf8" stroke="transparent" data-fill-palette-color="tertiary"></path></g></svg></g><defs></defs></svg><rect width="395.52" height="247.2" fill="none" stroke="none" visibility="hidden"></rect></g></svg></g></svg>